<?xml version="1.0" standalone="no"?>
<!DOCTYPE svg PUBLIC "-//W3C//DTD SVG 20010904//EN"
 "http://www.w3.org/TR/2001/REC-SVG-20010904/DTD/svg10.dtd">
<svg version="1.0" xmlns="http://www.w3.org/2000/svg"
 width="256.000000pt" height="256.000000pt" viewBox="0 0 256.000000 256.000000"
 preserveAspectRatio="xMidYMid meet">
<metadata>
Created by potrace 1.11, written by Peter Selinger 2001-2013
</metadata>
<g transform="translate(0.000000,256.000000) scale(0.100000,-0.100000)"
fill="#000000" stroke="none">
<path d="M1073 2410 c-36 -14 -41 -36 -26 -109 16 -76 30 -91 90 -91 44 0 49
-5 34 -29 -7 -10 -32 -15 -83 -16 -82 -2 -172 -13 -204 -26 -50 -18 -546 -356
-598 -406 -42 -42 -47 -105 -21 -306 61 -462 134 -656 268 -712 30 -12 37 -20
32 -33 -4 -9 -22 -61 -40 -115 -27 -78 -31 -99 -20 -103 37 -15 44 -7 123 136
13 25 27 48 31 52 3 4 59 -11 124 -32 103 -35 309 -96 356 -105 9 -2 52 -12
96 -24 44 -11 91 -22 105 -25 14 -3 69 -14 123 -25 54 -10 100 -21 102 -23 1
-1 24 -52 49 -113 59 -138 70 -155 101 -155 32 0 32 13 1 148 l-23 104 24 -7
c48 -12 178 -6 215 9 58 25 78 60 188 336 77 194 155 435 173 540 3 14 8 41
12 61 19 102 -112 514 -193 606 -24 27 -91 59 -185 88 -49 15 -73 27 -75 39
-3 15 3 16 56 10 56 -6 61 -5 73 17 21 40 46 164 38 187 -8 20 -40 33 -114 46
-16 3 -39 8 -50 10 -11 2 -42 7 -70 10 -27 4 -63 9 -80 11 -32 5 -77 10 -190
20 -38 4 -86 8 -105 10 -41 4 -181 15 -260 19 -30 2 -65 0 -77 -4z m292 -220
c55 -7 102 -13 105 -15 3 -2 23 -6 45 -9 46 -7 284 -55 302 -61 6 -2 9 -13 6
-24 -3 -12 -9 -19 -12 -16 -4 2 -23 7 -42 10 -19 3 -53 10 -77 16 -23 5 -59
12 -80 15 -20 3 -73 12 -117 19 -44 7 -107 16 -140 20 -107 11 -149 16 -153
20 -2 2 -1 13 3 24 5 16 13 20 33 17 15 -3 72 -10 127 -16z"/>
</g>
</svg>
